<svg xmlns="http://www.w3.org/2000/svg" viewBox="0 0 32 32"><circle cx="16" cy="16" r="14.9" fill="#fff" stroke="#fff" stroke-miterlimit="10"/><path d="M16 2c7.7 0 14 6.3 14 14s-6.3 14-14 14S2 23.7 2 16 8.3 2 16 2m0-2C7.2 0 0 7.2 0 16s7.2 16 16 16 16-7.2 16-16S24.8 0 16 0z"/><path d="M12.9 21l-2-6.3 5.1-3.8 5.1 3.9-2 6.2zM29.4 24.8l-4.3-3-5.2 4.1 1.6 5.1c3.2-1.2 6-3.4 7.9-6.2zM24.4 10.3l1.9 6.1 5.7-.3V16c0-3.3-1-6.6-3-9.3l-4.6 3.6zM11.5.7L13.1 6h6.3L21 .8c-3.1-1-6.4-1.1-9.5-.1zM0 16l5.8.4 1.9-6.1L3 6.6c-2 2.8-3 6-3 9.4zM2.8 25c2 2.8 4.8 5 8.1 6.1l1.6-5.1-5.2-4.1L2.8 25z"/></svg>